# xmcd
#
# Track frame offsets:
#	150
#	18351
#	36029
#	57595
#	72977
#	94613
#	108640
#	132938
#	157428
#	177044
#	197370
#
# Disc length: 2930 seconds
#
# Revision: 1
# Processed by: cddbd v1.4PL0 Copyright (c) Steve Scherf et al.
# Submitted via: EasyCDDAExtractor 6.0.0.1
#
DISCID=960b700b
DTITLE=Evidence - Ludicrous Poet
DYEAR=2002
DGENRE=Easy Listening
TTITLE0=Irwin's Blues
TTITLE1=Some World
TTITLE2=Inbound
TTITLE3=Fight of the Serval
TTITLE4=What Happened Today?
TTITLE5=Bertha, the New State
TTITLE6=As Luck Would
TTITLE7=Moonnrise
TTITLE8=Ludicrous Poet
TTITLE9=Cloudy Roads
TTITLE10=When the Lights Go Out
EXTD=
EXTT0=
EXTT1=
EXTT2=
EXTT3=
EXTT4=
EXTT5=
EXTT6=
EXTT7=
EXTT8=
EXTT9=
EXTT10=
PLAYORDER=
